<svg width="76" height="76" viewBox="0 0 76 76" fill="none" xmlns="http://www.w3.org/2000/svg">
<rect opacity="0.136765" width="76" height="76" rx="11" fill="#717CFF"/>
<path d="M23.2481 31H37.2611V27.409H29.4041L32.7791 24.79C36.0191 22.441 37.0991 20.524 37.0991 18.04C37.0991 14.557 34.2371 12.127 30.2951 12.127C27.2981 12.127 24.9491 13.423 23.1131 15.745L25.6511 18.202C27.0011 16.663 28.3781 15.745 30.1871 15.745C31.6991 15.745 32.9951 16.663 32.9951 18.202C32.9951 19.498 32.2931 20.713 30.0791 22.468L23.2481 27.76V31ZM46.7199 31.351C51.0399 31.351 53.8749 29.029 53.8749 25.816C53.8749 23.359 52.0119 21.928 49.9869 21.469C52.0119 20.875 53.4699 19.336 53.4699 17.203C53.4699 14.26 50.8509 12.127 46.6659 12.127C43.3719 12.127 41.1579 13.558 39.6189 15.421L41.9139 17.851C43.1559 16.555 44.5329 15.691 46.2879 15.691C48.1239 15.691 49.3929 16.555 49.3929 17.905C49.3929 19.228 48.1779 19.984 46.1529 19.984L44.0199 19.957V23.359H46.1529C48.6639 23.332 49.7709 24.061 49.7709 25.492C49.7709 26.815 48.5829 27.76 46.5309 27.76C44.6679 27.76 42.9129 26.977 41.6169 25.573L39.2679 28.219C40.8339 30.028 43.3719 31.351 46.7199 31.351Z" fill="#717CFF"/>
<path d="M21.8365 56H26.1925C30.2785 56 33.1585 53.426 33.1585 49.808C33.1585 46.19 30.2785 43.634 26.1925 43.634H21.8365V56ZM24.0865 53.966V45.668H26.4265C29.0365 45.668 30.8725 47.378 30.8725 49.808C30.8725 52.238 29.0365 53.966 26.4265 53.966H24.0865ZM39.6338 54.272C38.3018 54.272 37.3298 53.372 37.0598 52.094H44.0798C44.0798 48.656 42.4058 46.478 39.5258 46.478C36.8798 46.478 34.7918 48.53 34.7918 51.32C34.7918 54.182 36.9878 56.216 39.6518 56.216C41.0018 56.216 42.6218 55.64 43.4318 54.776L42.0458 53.336C41.5238 53.876 40.4978 54.272 39.6338 54.272ZM39.6158 48.422C40.9298 48.422 41.7218 49.25 41.9738 50.42H37.0778C37.4018 49.196 38.3918 48.422 39.6158 48.422ZM50.4653 56.216C51.9413 56.216 53.1833 55.604 54.0833 54.65L52.6073 53.372C52.0853 53.966 51.2933 54.344 50.4833 54.344C48.9533 54.344 47.6753 52.976 47.6753 51.338C47.6753 49.718 48.9533 48.35 50.4833 48.35C51.2753 48.35 52.0493 48.728 52.5533 49.286L54.0293 47.99C53.1473 47.072 51.9053 46.478 50.5013 46.478C47.7833 46.478 45.4973 48.692 45.4973 51.338C45.4973 53.984 47.7833 56.216 50.4653 56.216Z" fill="#717CFF"/>
</svg>
