<svg width="162" height="13" viewBox="0 0 162 13" fill="none" xmlns="http://www.w3.org/2000/svg">
<path d="M3.40521 12H5.38921V1.008H3.78921L0.701208 3.104L1.51721 4.512L3.40521 3.312V12ZM12.7705 12.192C15.5865 12.192 17.5705 9.84 17.5705 6.496C17.5705 3.168 15.5865 0.815999 12.7705 0.815999C9.93853 0.815999 7.93853 3.168 7.93853 6.496C7.93853 9.84 9.93853 12.192 12.7705 12.192ZM12.7705 10.368C11.1385 10.368 9.98653 8.768 9.98653 6.496C9.98653 4.224 11.1385 2.64 12.7705 2.64C14.3865 2.64 15.5385 4.224 15.5385 6.496C15.5385 8.768 14.3865 10.368 12.7705 10.368ZM21.0737 6.128C21.7457 6.128 22.3057 5.552 22.3057 4.848C22.3057 4.192 21.7457 3.616 21.0737 3.616C20.3377 3.616 19.7937 4.192 19.7937 4.848C19.7937 5.552 20.3377 6.128 21.0737 6.128ZM21.0737 12.192C21.7457 12.192 22.3057 11.616 22.3057 10.912C22.3057 10.256 21.7457 9.68 21.0737 9.68C20.3377 9.68 19.7937 10.256 19.7937 10.912C19.7937 11.616 20.3377 12.192 21.0737 12.192ZM29.3157 12.192C32.1317 12.192 34.1157 9.84 34.1157 6.496C34.1157 3.168 32.1317 0.815999 29.3157 0.815999C26.4837 0.815999 24.4837 3.168 24.4837 6.496C24.4837 9.84 26.4837 12.192 29.3157 12.192ZM29.3157 10.368C27.6837 10.368 26.5317 8.768 26.5317 6.496C26.5317 4.224 27.6837 2.64 29.3157 2.64C30.9317 2.64 32.0837 4.224 32.0837 6.496C32.0837 8.768 30.9317 10.368 29.3157 10.368ZM40.9789 12.192C43.7949 12.192 45.7789 9.84 45.7789 6.496C45.7789 3.168 43.7949 0.815999 40.9789 0.815999C38.1469 0.815999 36.1469 3.168 36.1469 6.496C36.1469 9.84 38.1469 12.192 40.9789 12.192ZM40.9789 10.368C39.3469 10.368 38.1949 8.768 38.1949 6.496C38.1949 4.224 39.3469 2.64 40.9789 2.64C42.5949 2.64 43.7469 4.224 43.7469 6.496C43.7469 8.768 42.5949 10.368 40.9789 10.368ZM61.5057 12H63.7137L59.1217 1.008H56.8977L52.3057 12H54.5297L55.3617 10.016H60.6737L61.5057 12ZM56.0817 8.288L58.0177 3.664L59.9537 8.288H56.0817ZM65.7574 12H67.7574V4.656L71.3734 11.36L75.0054 4.656V12H76.9894V1.008H75.0054L71.3734 7.712L67.7574 1.008H65.7574V12ZM84.4941 8.464H88.7981V6.752H84.4941V8.464ZM95.7252 12H103.805V10.176H98.8292L101.133 8.32C103.021 6.864 103.693 5.696 103.693 4.24C103.693 2.208 102.029 0.815999 99.8532 0.815999C98.0772 0.815999 96.7492 1.6 95.7092 2.96L97.0052 4.16C97.8052 3.2 98.6372 2.608 99.7892 2.608C100.781 2.608 101.661 3.248 101.661 4.288C101.661 5.184 101.165 6.016 99.7732 7.136L95.7252 10.368V12ZM107.346 6.128C108.018 6.128 108.578 5.552 108.578 4.848C108.578 4.192 108.018 3.616 107.346 3.616C106.61 3.616 106.066 4.192 106.066 4.848C106.066 5.552 106.61 6.128 107.346 6.128ZM107.346 12.192C108.018 12.192 108.578 11.616 108.578 10.912C108.578 10.256 108.018 9.68 107.346 9.68C106.61 9.68 106.066 10.256 106.066 10.912C106.066 11.616 106.61 12.192 107.346 12.192ZM115.588 12.192C118.404 12.192 120.388 9.84 120.388 6.496C120.388 3.168 118.404 0.815999 115.588 0.815999C112.756 0.815999 110.756 3.168 110.756 6.496C110.756 9.84 112.756 12.192 115.588 12.192ZM115.588 10.368C113.956 10.368 112.804 8.768 112.804 6.496C112.804 4.224 113.956 2.64 115.588 2.64C117.204 2.64 118.356 4.224 118.356 6.496C118.356 8.768 117.204 10.368 115.588 10.368ZM127.251 12.192C130.067 12.192 132.051 9.84 132.051 6.496C132.051 3.168 130.067 0.815999 127.251 0.815999C124.419 0.815999 122.419 3.168 122.419 6.496C122.419 9.84 124.419 12.192 127.251 12.192ZM127.251 10.368C125.619 10.368 124.467 8.768 124.467 6.496C124.467 4.224 125.619 2.64 127.251 2.64C128.867 2.64 130.019 4.224 130.019 6.496C130.019 8.768 128.867 10.368 127.251 10.368ZM139.41 12H141.41V8.304H144.194C146.546 8.304 148.306 6.8 148.306 4.656C148.306 2.512 146.546 1.008 144.194 1.008H139.41V12ZM141.41 6.464V2.848H143.97C145.33 2.848 146.274 3.536 146.274 4.656C146.274 5.776 145.33 6.464 143.97 6.464H141.41ZM150.468 12H152.468V4.656L156.084 11.36L159.716 4.656V12H161.7V1.008H159.716L156.084 7.712L152.468 1.008H150.468V12Z" fill="#373737"/>
</svg>
