<svg width="22" height="24" viewBox="0 0 22 24" fill="none" xmlns="http://www.w3.org/2000/svg">
<path fill-rule="evenodd" clip-rule="evenodd" d="M15.0854 0.875H6.56041C3.02924 0.875 0.166656 3.88824 0.166656 7.60526V16.5789C0.166656 20.296 3.02924 23.3092 6.56041 23.3092H15.0854C18.6166 23.3092 21.4792 20.296 21.4792 16.5789V7.60526C21.4792 3.88824 18.6166 0.875 15.0854 0.875ZM2.29791 7.60526C2.29791 5.12725 4.20629 3.11842 6.56041 3.11842H15.0854C17.4395 3.11842 19.3479 5.12725 19.3479 7.60526V16.5789C19.3479 19.057 17.4395 21.0658 15.0854 21.0658H6.56041C4.20629 21.0658 2.29791 19.057 2.29791 16.5789V7.60526ZM10.8229 17.7007C7.88026 17.7007 5.49478 15.1896 5.49478 12.0921C5.49478 8.99459 7.88026 6.48355 10.8229 6.48355C13.7655 6.48355 16.151 8.99459 16.151 12.0921C16.151 15.1896 13.7655 17.7007 10.8229 17.7007ZM10.8229 15.4572C12.5885 15.4572 14.0198 13.9506 14.0198 12.0921C14.0198 10.2336 12.5885 8.72697 10.8229 8.72697C9.05732 8.72697 7.62603 10.2336 7.62603 12.0921C7.62603 13.9506 9.05732 15.4572 10.8229 15.4572ZM16.151 7.60526C16.7396 7.60526 17.2167 7.10306 17.2167 6.48355C17.2167 5.86405 16.7396 5.36184 16.151 5.36184C15.5625 5.36184 15.0854 5.86405 15.0854 6.48355C15.0854 7.10306 15.5625 7.60526 16.151 7.60526Z" fill="#262626"/>
</svg>
