<svg width="76" height="76" viewBox="0 0 76 76" fill="none" xmlns="http://www.w3.org/2000/svg">
<rect opacity="0.136765" width="76" height="76" rx="11" fill="#717CFF"/>
<path d="M29.3795 31H33.3755V12.451H30.1895L24.6275 16.177L26.2205 18.985L29.3795 17.014V31ZM38.5336 31H43.0426L50.5216 15.448V12.451H36.7246V16.042H45.9046L38.5336 31Z" fill="#717CFF"/>
<path d="M28.6195 56.216C32.1295 56.216 35.0995 53.282 35.0995 49.808C35.0995 46.334 32.1295 43.418 28.6195 43.418C25.0915 43.418 22.1215 46.334 22.1215 49.808C22.1215 53.282 25.0915 56.216 28.6195 56.216ZM28.6195 54.164C26.3335 54.164 24.4075 52.184 24.4075 49.808C24.4075 47.45 26.3335 45.47 28.6195 45.47C30.8875 45.47 32.7955 47.45 32.7955 49.808C32.7955 52.184 30.8875 54.164 28.6195 54.164ZM41.5718 56.216C43.0478 56.216 44.2898 55.604 45.1898 54.65L43.7138 53.372C43.1918 53.966 42.3998 54.344 41.5898 54.344C40.0598 54.344 38.7818 52.976 38.7818 51.338C38.7818 49.718 40.0598 48.35 41.5898 48.35C42.3818 48.35 43.1558 48.728 43.6598 49.286L45.1358 47.99C44.2538 47.072 43.0118 46.478 41.6078 46.478C38.8898 46.478 36.6038 48.692 36.6038 51.338C36.6038 53.984 38.8898 56.216 41.5718 56.216ZM51.56 54.002C51.362 54.2 51.02 54.344 50.642 54.344C50.12 54.344 49.724 53.894 49.724 53.264V48.512H51.83V46.694H49.724V44.138H47.582V46.694H46.232V48.512H47.582V53.534C47.582 55.1 48.662 56.216 50.21 56.216C50.912 56.216 51.668 55.928 52.19 55.478L51.56 54.002Z" fill="#717CFF"/>
</svg>
