<svg width="21" height="19" viewBox="0 0 21 19" fill="none" xmlns="http://www.w3.org/2000/svg">
<path fill-rule="evenodd" clip-rule="evenodd" d="M12.0642 0.8182C13.7388 0.488941 15.2428 0.727798 16.5093 1.33909C16.5784 1.37242 16.6451 1.40603 16.7095 1.43977L17.9507 0.937485C19.229 0.420186 20.5799 1.50218 20.3552 2.86186C20.9639 3.53054 21.0605 4.64783 20.2379 5.38366L18.9649 6.52234C18.9805 7.92249 18.7885 9.17783 18.1988 10.5771C17.1477 13.0714 15.6404 14.9472 13.7963 16.252C12.4929 17.1743 11.0983 17.7599 9.69277 18.075C8.78435 18.2787 8.01369 18.3422 7.44665 18.3281C5.71567 18.3476 4.12124 17.9815 2.69868 17.3588C1.85227 16.9883 1.23046 16.6055 0.856779 16.3168C-0.494135 15.2732 0.274957 13.1106 1.98146 13.1544C2.30906 13.1628 2.61591 13.158 2.90289 13.1413C2.3595 12.4971 2.07106 11.8492 1.95392 11.3161C1.91324 11.131 1.90309 10.9475 1.9197 10.7703C1.80693 10.6343 1.70181 10.4931 1.60438 10.3471C0.9139 9.31223 0.710175 8.24839 0.767362 7.34002C0.771485 7.28401 0.773033 7.26298 0.775063 7.242C0.776283 7.2294 0.777676 7.21681 0.779908 7.19666L0.779909 7.19665C0.810963 6.93281 0.895725 6.69466 1.02019 6.4884C0.654537 5.32355 0.737542 4.15221 1.08203 3.04938C1.19407 2.69068 1.31203 2.41015 1.40776 2.22188C1.97811 1.10012 3.50537 0.918063 4.32343 1.87431C5.61147 3.37994 6.88373 4.27515 8.09711 4.70893C8.24764 4.76275 8.39227 4.80795 8.53061 4.84543C8.91685 2.40741 10.5217 0.949249 12.0642 0.8182ZM10.2544 6.91299C10.2544 6.91299 7.061 7.65356 3.49761 3.48823C3.49761 3.48823 2.10926 6.21882 4.51596 7.88467C4.51596 7.88467 3.72956 8.02357 3.08094 7.56106C3.08094 7.56106 2.80316 9.92109 5.67264 10.8467H4.1454C4.1454 10.8467 4.56235 12.7442 7.24627 13.1606C7.24627 13.1606 6.1357 14.6414 2.52566 14.5489C2.52566 14.5489 4.56235 16.1223 7.66322 16.0759C7.66322 16.0759 13.4014 16.3537 16.1319 9.87443C16.8033 8.28103 16.7336 6.7741 16.6872 6.03326L18.4459 4.46018L16.6872 4.78408C16.6872 4.78408 17.8906 3.9049 18.0297 3.07183L16.0858 3.85851C16.0858 3.85851 14.628 2.5396 12.1519 3.07183C12.1516 3.07183 9.88436 3.53462 10.2544 6.91299Z" fill="#37474F"/>
</svg>
